<svg width="23" height="23" viewBox="0 0 23 23" fill="none" xmlns="http://www.w3.org/2000/svg">
<path d="M10.4459 2.01262C6.03757 2.49179 2.49174 6.03762 2.01257 10.3501C1.5334 14.8543 4.1209 18.8793 8.05007 20.4126C8.33757 20.5085 8.62507 20.3168 8.62507 19.9335V18.4001C8.62507 18.4001 8.24174 18.496 7.76257 18.496C6.4209 18.496 5.8459 17.346 5.75007 16.6751C5.65424 16.2918 5.46257 16.0043 5.17507 15.7168C4.88757 15.621 4.79174 15.621 4.79174 15.5251C4.79174 15.3335 5.07924 15.3335 5.17507 15.3335C5.75007 15.3335 6.22924 16.0043 6.4209 16.2918C6.90007 17.0585 7.47507 17.2501 7.76257 17.2501C8.1459 17.2501 8.4334 17.1543 8.62507 17.0585C8.7209 16.3876 9.0084 15.7168 9.5834 15.3335C7.37924 14.8543 5.75007 13.6085 5.75007 11.5001C5.75007 10.446 6.22924 9.39179 6.90007 8.62512C6.80424 8.43345 6.7084 7.95429 6.7084 7.28345C6.7084 6.90012 6.7084 6.32512 6.9959 5.75012C6.9959 5.75012 8.33757 5.75012 9.67924 6.99595C10.1584 6.80429 10.8292 6.70845 11.5001 6.70845C12.1709 6.70845 12.8417 6.80429 13.4167 6.99595C14.6626 5.75012 16.1001 5.75012 16.1001 5.75012C16.2917 6.32512 16.2917 6.90012 16.2917 7.28345C16.2917 8.05012 16.1959 8.43345 16.1001 8.62512C16.7709 9.39179 17.2501 10.3501 17.2501 11.5001C17.2501 13.6085 15.6209 14.8543 13.4167 15.3335C13.9917 15.8126 14.3751 16.6751 14.3751 17.5376V20.0293C14.3751 20.3168 14.6626 20.6043 15.0459 20.5085C18.5917 19.071 21.0834 15.621 21.0834 11.596C21.0834 5.84595 16.1959 1.34179 10.4459 2.01262Z" fill="#0F0A0A"/>
</svg>
