<svg width="24" height="25" viewBox="0 0 24 25" fill="none" xmlns="http://www.w3.org/2000/svg">
<path d="M20.023 15.4919C19.393 15.4769 18.6 15.4399 18.099 15.3519C17.557 15.2559 16.905 15.0699 16.446 14.9269C16.086 14.8149 15.694 14.9139 15.427 15.1799L13.21 17.3839C11.678 16.5769 10.451 15.6369 9.412 14.5919C8.367 13.5529 7.427 12.3259 6.62 10.7939L8.824 8.57591C9.09 8.30891 9.189 7.91691 9.077 7.55691C8.935 7.09891 8.748 6.44691 8.653 5.90491C8.564 5.40391 8.528 4.61091 8.512 3.98091C8.499 3.43591 8.055 3.00391 7.51 3.00391H4C3.562 3.00391 3 3.33191 3 4.00391C3 8.54291 4.84 12.8779 7.966 16.0379C11.126 19.1639 15.461 21.0039 20 21.0039C20.672 21.0039 21 20.4419 21 20.0039V16.4939C21 15.9489 20.568 15.5049 20.023 15.4919Z" fill="#0F0A0A"/>
</svg>
