<svg width="44" height="45" viewBox="0 0 44 45" fill="none" xmlns="http://www.w3.org/2000/svg">
<rect x="1" y="1.00391" width="42" height="42" rx="3" fill="#42E2B8"/>
<path d="M18 13.0039C15.239 13.0039 13 15.2429 13 18.0039V26.0039C13 28.7649 15.239 31.0039 18 31.0039H26C28.761 31.0039 31 28.7649 31 26.0039V18.0039C31 15.2429 28.761 13.0039 26 13.0039H18ZM28 15.0039C28.552 15.0039 29 15.4519 29 16.0039C29 16.5559 28.552 17.0039 28 17.0039C27.448 17.0039 27 16.5559 27 16.0039C27 15.4519 27.448 15.0039 28 15.0039ZM22 17.0039C24.761 17.0039 27 19.2429 27 22.0039C27 24.7649 24.761 27.0039 22 27.0039C19.239 27.0039 17 24.7649 17 22.0039C17 19.2429 19.239 17.0039 22 17.0039ZM22 19.0039C21.2044 19.0039 20.4413 19.32 19.8787 19.8826C19.3161 20.4452 19 21.2083 19 22.0039C19 22.7996 19.3161 23.5626 19.8787 24.1252C20.4413 24.6878 21.2044 25.0039 22 25.0039C22.7956 25.0039 23.5587 24.6878 24.1213 24.1252C24.6839 23.5626 25 22.7996 25 22.0039C25 21.2083 24.6839 20.4452 24.1213 19.8826C23.5587 19.32 22.7956 19.0039 22 19.0039Z" fill="#0F0A0A"/>
<rect x="1" y="1.00391" width="42" height="42" rx="3" stroke="#0F0A0A" stroke-width="2"/>
</svg>
