<?xml version="1.0"?>
<svg xmlns="http://www.w3.org/2000/svg" xmlns:xlink="http://www.w3.org/1999/xlink" xmlns:svgjs="http://svgjs.com/svgjs" version="1.1" width="512" height="512" x="0" y="0" viewBox="0 0 512 512" style="enable-background:new 0 0 512 512" xml:space="preserve" class=""><g>
<path xmlns="http://www.w3.org/2000/svg" style="" d="M508.271,194.568l-149.333-128c-3.146-2.708-7.583-3.323-11.396-1.594  c-3.781,1.74-6.208,5.521-6.208,9.688v74.813c-119.188,3.313-176.688,62.312-204.021,112.031  c-23.771,43.219-29.104,86.01-30.302,103.573c-0.229,2.688-0.344,5.427-0.344,8.219v0.031c0,0,0,0.01,0,0.021v0.01  c0,0.01,0,0.01,0,0.01v0.031v0.01c0,0,0,0.01,0,0.021v0.01c0,0.01,0,0.021,0,0.021c0,0.01,0,0.01,0,0.01v0.031  c0,0.01,0,0.021,0,0.031c0,0,0,0.01,0,0.031v0.01v0.021v0.01c0,0.01,0,0.021,0,0.031l0.01,0.031c0,0,0,0,0,0.01  c0,0.021,0,0.031,0,0.031c0,0.01,0,0.021,0,0.031v0.031v0.031v0.01v0.031c0,0.01,0,0.021,0,0.031c0,0,0,0.021,0.01,0.031  c0,0,0,0.01,0,0.031v0.01c0,0.01,0,0.021,0,0.031v0.031c0,0.01,0,0.021,0,0.031c-0.01,0.031,0.021,0.042,0.01,0.042v0.031  c0,0.01,0,0.021,0,0.031v0.031c0,0.021,0.01,0.042,0.01,0.042v0.031c0,0.01,0,0.021,0,0.031v0.01v0.021v0.01l0.01,0.021v0.01  c0,0.01,0,0.021,0,0.021c0,0.01,0,0.01,0,0.01v0.031v0.01c0.01,0.01,0.01,0.01,0.01,0.021c0,0,0,0.01,0,0.021v0.01  c0,0.01,0,0.01,0,0.01v0.021c0.01,0.031,0.01,0.031,0.01,0.031c0,0.01,0,0.021,0,0.031v0.01v0.021v0.01  c0.01,0.01,0.01,0.021,0.01,0.021c0,0.021,0,0.031,0,0.031c0.667,5.26,5.156,9.323,10.583,9.323c5.885,0,10.656-4.76,10.667-10.646  v-0.01c0-0.542,0.01-1.865,0.104-3.885c4.656-88.698,168.521-108.823,213.229-112.667v73.875c0,4.167,2.427,7.948,6.208,9.688  c3.802,1.729,8.229,1.125,11.396-1.594l149.333-128c2.365-2.021,3.729-4.979,3.729-8.094  C512,199.547,510.635,196.589,508.271,194.568z" fill="#303c42" data-original="#303c42" class=""/>
<path xmlns="http://www.w3.org/2000/svg" style="" d="M362.667,307.474v-62.146c0-2.917-1.188-5.698-3.302-7.708c-1.979-1.906-4.625-2.958-7.365-2.958  c-0.156,0-0.323,0-0.49,0.01c-7.51,0.344-142.177,7.281-208.521,64.323c21.948-57.885,75.969-128.333,208.958-128.333H352  c2.833,0,5.542-1.125,7.542-3.125s3.125-4.708,3.125-7.542V97.849l122.281,104.812L362.667,307.474z" fill="#42e2b8" data-original="#1b87c9" class=""/>
<path xmlns="http://www.w3.org/2000/svg" style="opacity:0.1;fill:#010101;enable-background:new    ;" d="M379.052,284.287v-62.146c0-2.917-1.188-5.698-3.302-7.708  c-1.979-1.906-4.625-2.958-7.365-2.958c-0.156,0-0.323,0-0.49,0.01c-7.51,0.344-142.177,7.281-208.521,64.323  c4.141-10.922,9.434-22.29,16.173-33.549c-15.15,18.389-25.53,38.198-32.559,56.737c66.344-57.042,201.01-63.979,208.521-64.323  c0.167-0.01,0.333-0.01,0.49-0.01c2.74,0,5.385,1.052,7.365,2.958c2.115,2.01,3.302,4.792,3.302,7.708v62.146l122.281-104.813  L379.052,284.287z" fill=""/>
<path xmlns="http://www.w3.org/2000/svg" style="" d="M437.333,303.047c-5.896,0-10.667,4.771-10.667,10.667v91.615c0,11.76-9.573,21.333-21.333,21.333  H42.667c-11.76,0-21.333-9.573-21.333-21.333V191.995c0-11.76,9.573-21.333,21.333-21.333h147.729  c5.896,0,10.667-4.771,10.667-10.667s-4.771-10.667-10.667-10.667H42.667C19.135,149.329,0,168.464,0,191.995v213.333  c0,23.531,19.135,42.667,42.667,42.667h362.667c23.531,0,42.667-19.135,42.667-42.667v-91.615  C448,307.818,443.229,303.047,437.333,303.047z" fill="#303c42" data-original="#303c42" class=""/>
<linearGradient xmlns="http://www.w3.org/2000/svg" id="SVGID_1_" gradientUnits="userSpaceOnUse" x1="-46.3997" y1="638.5786" x2="-24.9804" y2="628.5914" gradientTransform="matrix(21.3333 0 0 -21.3333 996.3334 13791.667)">
	<stop offset="0" style="stop-color:#FFFFFF;stop-opacity:0.2"/>
	<stop offset="1" style="stop-color:#FFFFFF;stop-opacity:0"/>
</linearGradient>
<path xmlns="http://www.w3.org/2000/svg" style="fill:url(#SVGID_1_);" d="M508.271,194.568l-149.333-128c-3.146-2.708-7.583-3.323-11.396-1.594  c-3.781,1.74-6.208,5.521-6.208,9.688v74.813c-119.188,3.313-176.688,62.312-204.021,112.031  c-23.771,43.219-29.104,86.01-30.302,103.573c-0.229,2.688-0.344,5.427-0.344,8.219v0.031c0,0,0,0.01,0,0.021v0.01  c0,0.01,0,0.01,0,0.01v0.042c0,0,0,0.01,0,0.021v0.01c0,0.01,0,0.021,0,0.021c0,0.01,0,0.01,0,0.01v0.063c0,0,0,0.01,0,0.031v0.073  l0.01,0.031c0,0,0,0,0,0.01c0,0.021,0,0.031,0,0.031v0.167c0,0,0,0.021,0.01,0.031c0,0,0,0.01,0,0.031v0.104  c-0.01,0.031,0.021,0.042,0.01,0.042v0.094c0,0.021,0.01,0.042,0.01,0.042v0.104l0.01,0.021v0.01c0,0.01,0,0.021,0,0.021  c0,0.01,0,0.01,0,0.01v0.042c0.01,0.01,0.01,0.01,0.01,0.021c0,0,0,0.01,0,0.021v0.01c0,0.01,0,0.01,0,0.01v0.021  c0.01,0.031,0.01,0.031,0.01,0.031v0.073c0.01,0.01,0.01,0.021,0.01,0.021c0,0.021,0,0.031,0,0.031  c0.667,5.26,5.156,9.323,10.583,9.323c5.885,0,10.656-4.76,10.667-10.646v-0.01c0-0.542,0.01-1.865,0.104-3.885  c4.656-88.698,168.521-108.823,213.229-112.667v73.875c0,4.167,2.427,7.948,6.208,9.688c3.802,1.729,8.229,1.125,11.396-1.594  l149.333-128c2.365-2.021,3.729-4.979,3.729-8.094C512,199.547,510.635,196.589,508.271,194.568z M437.333,303.047  c-5.896,0-10.667,4.771-10.667,10.667v91.615c0,11.76-9.573,21.333-21.333,21.333H42.667c-11.76,0-21.333-9.573-21.333-21.333  V191.995c0-11.76,9.573-21.333,21.333-21.333h147.729c5.896,0,10.667-4.771,10.667-10.667s-4.771-10.667-10.667-10.667H42.667  C19.135,149.329,0,168.464,0,191.995v213.333c0,23.531,19.135,42.667,42.667,42.667h362.667c23.531,0,42.667-19.135,42.667-42.667  v-91.615C448,307.818,443.229,303.047,437.333,303.047z" fill=""/>
<g xmlns="http://www.w3.org/2000/svg">
</g>
<g xmlns="http://www.w3.org/2000/svg">
</g>
<g xmlns="http://www.w3.org/2000/svg">
</g>
<g xmlns="http://www.w3.org/2000/svg">
</g>
<g xmlns="http://www.w3.org/2000/svg">
</g>
<g xmlns="http://www.w3.org/2000/svg">
</g>
<g xmlns="http://www.w3.org/2000/svg">
</g>
<g xmlns="http://www.w3.org/2000/svg">
</g>
<g xmlns="http://www.w3.org/2000/svg">
</g>
<g xmlns="http://www.w3.org/2000/svg">
</g>
<g xmlns="http://www.w3.org/2000/svg">
</g>
<g xmlns="http://www.w3.org/2000/svg">
</g>
<g xmlns="http://www.w3.org/2000/svg">
</g>
<g xmlns="http://www.w3.org/2000/svg">
</g>
<g xmlns="http://www.w3.org/2000/svg">
</g>
</g></svg>
