<svg width="44" height="45" viewBox="0 0 44 45" fill="none" xmlns="http://www.w3.org/2000/svg">
<rect x="1" y="1.00391" width="42" height="42" rx="3" fill="#42E2B8"/>
<path d="M30.023 25.4919C29.393 25.4769 28.6 25.4399 28.099 25.3519C27.557 25.2559 26.905 25.0699 26.446 24.9269C26.086 24.8149 25.694 24.9139 25.427 25.1799L23.21 27.3839C21.678 26.5769 20.451 25.6369 19.412 24.5919C18.367 23.5529 17.427 22.3259 16.62 20.7939L18.824 18.5759C19.09 18.3089 19.189 17.9169 19.077 17.5569C18.935 17.0989 18.748 16.4469 18.653 15.9049C18.564 15.4039 18.528 14.6109 18.512 13.9809C18.499 13.4359 18.055 13.0039 17.51 13.0039H14C13.562 13.0039 13 13.3319 13 14.0039C13 18.5429 14.84 22.8779 17.966 26.0379C21.126 29.1639 25.461 31.0039 30 31.0039C30.672 31.0039 31 30.4419 31 30.0039V26.4939C31 25.9489 30.568 25.5049 30.023 25.4919Z" fill="#0F0A0A"/>
<rect x="1" y="1.00391" width="42" height="42" rx="3" stroke="#0F0A0A" stroke-width="2"/>
</svg>
