<svg width="44" height="45" viewBox="0 0 44 45" fill="none" xmlns="http://www.w3.org/2000/svg">
<rect x="1" y="1.00391" width="42" height="42" rx="3" fill="#42E2B8"/>
<path d="M32 14.0029C31.22 14.4659 29.655 15.0969 28.735 15.2789C28.708 15.2859 28.686 15.2949 28.66 15.3019C27.847 14.4999 26.733 14.0029 25.5 14.0029C23.015 14.0029 21 16.0179 21 18.5029C21 18.6339 20.989 18.8749 21 19.0029C17.647 19.0029 15.095 17.2469 13.265 15.0029C13.066 15.5029 12.979 16.2929 12.979 17.0349C12.979 18.4359 14.074 19.8119 15.779 20.6649C15.465 20.7459 15.119 20.8039 14.759 20.8039C14.178 20.8039 13.563 20.6509 13 20.1869C13 20.2039 13 20.2199 13 20.2379C13 22.1959 15.078 23.5289 16.926 23.8999C16.551 24.1209 15.795 24.1429 15.426 24.1429C15.166 24.1429 14.246 24.0239 14 23.9779C14.514 25.5829 16.368 26.4849 18.135 26.5169C16.753 27.6009 15.794 28.0029 12.964 28.0029H12C13.788 29.1489 16.065 30.0039 18.347 30.0039C25.777 30.0039 30 24.3409 30 19.0029C30 18.9169 29.998 18.7369 29.995 18.5559C29.995 18.5379 30 18.5209 30 18.5029C30 18.4759 29.992 18.4499 29.992 18.4229C29.989 18.2869 29.986 18.1599 29.983 18.0939C30.773 17.5239 31.458 16.8129 32 16.0029C31.275 16.3249 30.497 16.5409 29.68 16.6389C30.514 16.1389 31.699 14.9469 32 14.0029Z" fill="#0F0A0A"/>
<rect x="1" y="1.00391" width="42" height="42" rx="3" stroke="#0F0A0A" stroke-width="2"/>
</svg>
